<?xml version="1.0" encoding="UTF-8" standalone="no"?>
<svg
   viewBox="0 0 24 24"
   fill="#000000"
   width="24"
   height="24"
   version="1.1"
   id="svg1"
   sodipodi:docname="bxs-magic-wand.svg"
   inkscape:version="1.3.2 (091e20ef0f, 2023-11-25)"
   xmlns:inkscape="http://www.inkscape.org/namespaces/inkscape"
   xmlns:sodipodi="http://sodipodi.sourceforge.net/DTD/sodipodi-0.dtd"
   xmlns="http://www.w3.org/2000/svg"
   xmlns:svg="http://www.w3.org/2000/svg">
  <defs
     id="defs1">
    <inkscape:path-effect
       effect="fillet_chamfer"
       id="path-effect2"
       is_visible="true"
       lpeversion="1"
       nodesatellites_param="F,0,0,1,0,0,0,1 @ F,0,0,1,0,0,0,1 @ F,0,0,1,0,0,0,1 @ F,0,0,1,0,0,0,1 @ F,0,0,1,0,0,0,1 @ F,0,0,1,0,0,0,1 @ F,0,0,1,0,0,0,1 @ F,0,0,1,0,0,0,1 @ F,0,0,1,0,0,0,1 @ F,0,0,1,0,0,0,1 | F,0,0,1,0,0,0,1 @ F,0,0,1,0,0,0,1 @ F,0,0,1,0,0,0,1 @ F,0,0,1,0,0,0,1 @ F,0,0,1,0,0,0,1 @ F,0,0,1,0,0,0,1 @ F,0,0,1,0,0,0,1 @ F,0,0,1,0,0,0,1 @ F,0,0,1,0,0,0,1 @ F,0,0,1,0,0,0,1 | F,0,0,1,0,0,0,1 @ F,0,0,1,0,0,0,1 @ F,0,0,1,0,0,0,1 @ F,0,0,1,0,0,0,1 @ F,0,0,1,0,0,0,1 @ F,0,0,1,0,0,0,1 @ F,0,0,1,0,0,0,1 @ F,0,0,1,0,0,0,1 @ F,0,0,1,0,0,0,1 @ F,0,0,1,0,0,0,1 | F,0,0,1,0,0,0,1 @ F,0,0,1,0,0,0,1 @ F,0,0,1,0,0,0,1 @ F,0,0,1,0,0,0,1 @ F,0,0,1,0,0,0,1 @ F,0,0,1,0,0,0,1 @ F,0,0,1,0,0,0,1 @ F,0,0,1,0,0,0,1 @ F,0,0,1,0,0,0,1 @ F,0,0,1,0,0,0,1 @ F,0,0,1,0,0,0,1 | F,0,1,1,0,0.60312049,0,1 @ F,0,0,1,0,0.60312049,0,1 @ F,0,0,1,0,0,0,1 @ F,0,0,1,0,0,0,1"
       radius="0"
       unit="px"
       method="auto"
       mode="F"
       chamfer_steps="1"
       flexible="false"
       use_knot_distance="true"
       apply_no_radius="true"
       apply_with_radius="true"
       only_selected="false"
       hide_knots="false" />
    <inkscape:path-effect
       effect="fillet_chamfer"
       id="path-effect1"
       is_visible="true"
       lpeversion="1"
       nodesatellites_param="F,0,0,1,0,0,0,1 @ F,0,1,1,0,0.41675258,0,1 @ F,0,0,1,0,0,0,1 @ F,0,1,1,0,0.41675258,0,1 @ F,0,0,1,0,0,0,1 @ F,0,1,1,0,0.41675258,0,1 @ F,0,0,1,0,0,0,1 @ F,0,1,1,0,0.41675258,0,1 @ F,0,0,1,0,0,0,1 @ F,0,1,1,0,0.41675258,0,1 | F,0,0,1,0,0,0,1 @ F,0,0,1,0,0.41675258,0,1 @ F,0,0,1,0,0,0,1 @ F,0,1,1,0,0.41675258,0,1 @ F,0,0,1,0,0,0,1 @ F,0,1,1,0,0.41675258,0,1 @ F,0,0,1,0,0,0,1 @ F,0,1,1,0,0.41675258,0,1 @ F,0,0,1,0,0,0,1 @ F,0,1,1,0,0.41675258,0,1 | F,0,0,1,0,0,0,1 @ F,0,1,1,0,0.41675258,0,1 @ F,0,0,1,0,0,0,1 @ F,0,1,1,0,0.41675258,0,1 @ F,0,0,1,0,0,0,1 @ F,0,1,1,0,0.41675258,0,1 @ F,0,0,1,0,0,0,1 @ F,0,1,1,0,0.41675258,0,1 @ F,0,0,1,0,0,0,1 @ F,0,1,1,0,0.41675258,0,1 | F,0,0,1,0,0,0,1 @ F,0,0,1,0,0,0,1 @ F,0,0,1,0,0,0,1 @ F,0,0,1,0,0,0,1 @ F,0,0,1,0,0,0,1 @ F,0,0,1,0,0,0,1 @ F,0,0,1,0,0,0,1 @ F,0,0,1,0,0,0,1 @ F,0,0,1,0,0,0,1 @ F,0,0,1,0,0,0,1 @ F,0,0,1,0,0,0,1 | F,0,0,1,0,0,0,1 @ F,0,0,1,0,0,0,1 @ F,0,0,1,0,0,0,1 @ F,0,0,1,0,0,0,1"
       radius="0"
       unit="px"
       method="auto"
       mode="F"
       chamfer_steps="1"
       flexible="false"
       use_knot_distance="true"
       apply_no_radius="true"
       apply_with_radius="true"
       only_selected="false"
       hide_knots="false" />
  </defs>
  <sodipodi:namedview
     id="namedview1"
     pagecolor="#ffffff"
     bordercolor="#000000"
     borderopacity="0.25"
     inkscape:showpageshadow="2"
     inkscape:pageopacity="0.0"
     inkscape:pagecheckerboard="0"
     inkscape:deskcolor="#d1d1d1"
     inkscape:zoom="22.627417"
     inkscape:cx="7.6013979"
     inkscape:cy="15.556349"
     inkscape:window-width="1920"
     inkscape:window-height="1014"
     inkscape:window-x="0"
     inkscape:window-y="0"
     inkscape:window-maximized="1"
     inkscape:current-layer="svg1" />
  <path
     d="M 11,4 10.749233,3.4984666 a 0.27865132,0.27865132 0 0 0 -0.498466,0 L 10,4 9.5529991,4.0558751 A 0.24494995,0.24494995 106.6018 0 0 9.424857,4.4856699 L 9.834,4.833 9.6533453,5.4642095 A 0.20485451,0.20485451 36.153858 0 0 9.9638465,5.6910782 L 10.5,5.334 11.036154,5.6910782 A 0.20485451,0.20485451 143.84614 0 0 11.346655,5.4642095 L 11.166,4.833 11.575143,4.4856699 A 0.24494995,0.24494995 73.398197 0 0 11.447001,4.0558751 Z m 8.334,10.666 -0.584527,-1.167653 a 0.27898583,0.27898583 180 0 0 -0.498946,0 L 17.666,14.666 16.552968,14.80563 a 0.24535446,0.24535446 106.61125 0 0 -0.12839,0.430368 L 17.389,16.056 16.986994,17.464109 A 0.20487231,0.20487231 36.117857 0 0 17.297661,17.6908 L 18.5,16.889 l 1.202339,0.8018 a 0.20487231,0.20487231 143.88214 0 0 0.310667,-0.226691 L 19.611,16.056 20.575422,15.235998 A 0.24535446,0.24535446 73.388747 0 0 20.447032,14.80563 Z M 6.667,6.333 6.2493829,5.4983918 a 0.27886036,0.27886036 0 0 0 -0.4987658,0 L 5.333,6.333 4.5529799,6.4307219 A 0.24518967,0.24518967 106.60658 0 0 4.4246968,6.8608585 L 5.111,7.444 4.8199208,8.4640882 A 0.2049043,0.2049043 36.112978 0 0 5.1306503,8.6907839 L 6,8.111 6.8693497,8.6907839 A 0.2049043,0.2049043 143.88702 0 0 7.1800792,8.4640882 L 6.889,7.444 7.5753032,6.8608585 A 0.24518967,0.24518967 73.393415 0 0 7.4470201,6.4307219 Z M 3.414,17 c 0,0.534 0.208,1.036 0.586,1.414 L 5.586,20 c 0.378,0.378 0.88,0.586 1.414,0.586 0.534,0 1.036,-0.208 1.414,-0.586 L 20,8.414 C 20.378,8.036 20.586,7.534 20.586,7 20.586,6.466 20.378,5.964 20,5.586 L 18.414,4 C 17.658,3.244 16.342,3.244 15.586,4 L 4,15.586 C 3.622,15.964 3.414,16.466 3.414,17 Z M 17.426471,5.8404706 18.159529,6.5735294 a 0.60312049,0.60312049 90 0 1 0,0.8529412 L 15,10.586 13.414,9 16.573529,5.8404706 a 0.60312049,0.60312049 180 0 1 0.852942,0 z"
     id="path1"
     inkscape:original-d="m11 4-.5-1-.5 1-1 .125.834.708L9.5 6l1-.666 1 .666-.334-1.167.834-.708zm8.334 10.666L18.5 13l-.834 1.666-1.666.209 1.389 1.181L16.834 18l1.666-1.111L20.166 18l-.555-1.944L21 14.875zM6.667 6.333 6 5l-.667 1.333L4 6.5l1.111.944L4.667 9 6 8.111 7.333 9l-.444-1.556L8 6.5zM3.414 17c0 .534.208 1.036.586 1.414L5.586 20c.378.378.88.586 1.414.586s1.036-.208 1.414-.586L20 8.414c.378-.378.586-.88.586-1.414S20.378 5.964 20 5.586L18.414 4c-.756-.756-2.072-.756-2.828 0L4 15.586c-.378.378-.586.88-.586 1.414zM17 5.414 18.586 7 15 10.586 13.414 9 17 5.414z"
     inkscape:path-effect="#path-effect2" />
</svg>
