<?xml version="1.0" encoding="UTF-8" standalone="no"?>
<svg
   viewBox="0 0 24 24"
   fill="#000000"
   width="24"
   height="24"
   version="1.1"
   id="svg1"
   sodipodi:docname="bxs-info-circle.svg"
   inkscape:version="1.3.2 (091e20ef0f, 2023-11-25)"
   xmlns:inkscape="http://www.inkscape.org/namespaces/inkscape"
   xmlns:sodipodi="http://sodipodi.sourceforge.net/DTD/sodipodi-0.dtd"
   xmlns="http://www.w3.org/2000/svg"
   xmlns:svg="http://www.w3.org/2000/svg">
  <defs
     id="defs1">
    <inkscape:path-effect
       effect="fillet_chamfer"
       id="path-effect1"
       is_visible="true"
       lpeversion="1"
       nodesatellites_param="F,0,0,1,0,0,0,1 @ F,0,0,1,0,0,0,1 @ F,0,0,1,0,0,0,1 @ F,0,0,1,0,0,0,1 | F,0,1,1,0,0.72790404,0,1 @ F,0,1,1,0,0.72790404,0,1 @ F,0,0,1,0,0.72790404,0,1 @ F,0,1,1,0,0.72790404,0,1 | F,0,1,1,0,0.72790404,0,1 @ F,0,1,1,0,0.72790404,0,1 @ F,0,1,1,0,0.72790404,0,1 @ F,0,1,1,0,0.72790404,0,1"
       radius="0"
       unit="px"
       method="auto"
       mode="F"
       chamfer_steps="1"
       flexible="false"
       use_knot_distance="true"
       apply_no_radius="true"
       apply_with_radius="true"
       only_selected="false"
       hide_knots="false" />
  </defs>
  <sodipodi:namedview
     id="namedview1"
     pagecolor="#ffffff"
     bordercolor="#000000"
     borderopacity="0.25"
     inkscape:showpageshadow="2"
     inkscape:pageopacity="0.0"
     inkscape:pagecheckerboard="0"
     inkscape:deskcolor="#d1d1d1"
     inkscape:zoom="48.083261"
     inkscape:cx="12.707125"
     inkscape:cy="13.871771"
     inkscape:window-width="1920"
     inkscape:window-height="1014"
     inkscape:window-x="0"
     inkscape:window-y="0"
     inkscape:window-maximized="1"
     inkscape:current-layer="svg1" />
  <path
     d="M 12,2 C 6.486,2 2,6.486 2,12 2,17.514 6.486,22 12,22 17.514,22 22,17.514 22,12 22,6.486 17.514,2 12,2 Z m 0.272096,15 H 11.727904 A 0.72790404,0.72790404 45 0 1 11,16.272096 V 11.727904 A 0.72790404,0.72790404 135 0 1 11.727904,11 h 0.544192 A 0.72790404,0.72790404 45 0 1 13,11.727904 l 0,4.544192 A 0.72790404,0.72790404 135 0 1 12.272096,17 Z m 0,-8 H 11.727904 A 0.72790404,0.72790404 45 0 1 11,8.272096 V 7.727904 A 0.72790404,0.72790404 135 0 1 11.727904,7 h 0.544192 A 0.72790404,0.72790404 45 0 1 13,7.727904 V 8.272096 A 0.72790404,0.72790404 135 0 1 12.272096,9 Z"
     id="path1"
     inkscape:path-effect="#path-effect1"
     inkscape:original-d="M12 2C6.486 2 2 6.486 2 12s4.486 10 10 10 10-4.486 10-10S17.514 2 12 2zm1 15h-2v-6h2v6zm0-8h-2V7h2v2z" />
</svg>
