<?xml version="1.0" encoding="UTF-8" standalone="no"?>
<svg
   viewBox="0 0 24 24"
   fill="#000000"
   width="24"
   height="24"
   version="1.1"
   id="svg1"
   sodipodi:docname="bxs-sun.svg"
   inkscape:version="1.3.2 (091e20ef0f, 2023-11-25)"
   xmlns:inkscape="http://www.inkscape.org/namespaces/inkscape"
   xmlns:sodipodi="http://sodipodi.sourceforge.net/DTD/sodipodi-0.dtd"
   xmlns="http://www.w3.org/2000/svg"
   xmlns:svg="http://www.w3.org/2000/svg">
  <defs
     id="defs1">
    <inkscape:path-effect
       effect="fillet_chamfer"
       id="path-effect2"
       is_visible="true"
       lpeversion="1"
       nodesatellites_param="F,0,1,1,0,0.8,0,1 @ F,0,1,1,0,0.8,0,1 @ F,0,1,1,0,0.8,0,1 @ F,0,1,1,0,0.8,0,1 | F,0,1,1,0,0.8,0,1 @ F,0,0,1,0,0.8,0,1 @ F,0,1,1,0,0.8,0,1 @ F,0,1,1,0,0.8,0,1 | F,0,1,1,0,0.8,0,1 @ F,0,1,1,0,0.8,0,1 @ F,0,1,1,0,0.8,0,1 @ F,0,1,1,0,0.8,0,1 | F,0,1,1,0,0.8,0,1 @ F,0,1,1,0,0.8,0,1 @ F,0,1,1,0,0.8,0,1 @ F,0,1,1,0,0.8,0,1 | F,0,1,1,0,0.8,0,1 @ F,0,1,1,0,0.8,0,1 @ F,0,1,1,0,0.8,0,1 @ F,0,1,1,0,0.8,0,1 | F,0,1,1,0,0.8,0,1 @ F,0,1,1,0,0.8,0,1 @ F,0,1,1,0,0.8,0,1 @ F,0,1,1,0,0.8,0,1 | F,0,1,1,0,0.8,0,1 @ F,0,1,1,0,0.8,0,1 @ F,0,1,1,0,0.8,0,1 @ F,0,1,1,0,0.8,0,1 | F,0,1,1,0,0.8,0,1 @ F,0,1,1,0,0.8,0,1 @ F,0,1,1,0,0.8,0,1 @ F,0,1,1,0,0.8,0,1 | F,0,1,1,0,0.8,0,1 @ F,0,1,1,0,0.8,0,1 @ F,0,1,1,0,0.8,0,1 @ F,0,1,1,0,0.8,0,1"
       radius="0"
       unit="px"
       method="auto"
       mode="F"
       chamfer_steps="1"
       flexible="false"
       use_knot_distance="true"
       apply_no_radius="true"
       apply_with_radius="true"
       only_selected="false"
       hide_knots="false" />
    <inkscape:path-effect
       effect="fillet_chamfer"
       id="path-effect1"
       nodesatellites_param="F,0,0,1,0,0,0,1 @ F,0,0,1,0,0,0,1 @ F,0,0,1,0,0,0,1 @ F,0,0,1,0,0,0,1 | F,0,0,1,0,0,0,1 @ F,0,0,1,0,0,0,1 @ F,0,0,1,0,0,0,1 @ F,0,0,1,0,0,0,1 | F,0,0,1,0,0,0,1 @ F,0,0,1,0,0,0,1 @ F,0,0,1,0,0,0,1 @ F,0,0,1,0,0,0,1 | F,0,0,1,0,0,0,1 @ F,0,0,1,0,0,0,1 @ F,0,0,1,0,0,0,1 @ F,0,0,1,0,0,0,1 | F,0,0,1,0,0,0,1 @ F,0,0,1,0,0,0,1 @ F,0,0,1,0,0,0,1 @ F,0,0,1,0,0,0,1 | F,0,0,1,0,0,0,1 @ F,0,0,1,0,0,0,1 @ F,0,0,1,0,0,0,1 @ F,0,0,1,0,0,0,1 | F,0,0,1,0,0,0,1 @ F,0,0,1,0,0,0,1 @ F,0,0,1,0,0,0,1 @ F,0,0,1,0,0,0,1 | F,0,0,1,0,0,0,1 @ F,0,0,1,0,0,0,1 @ F,0,0,1,0,0,0,1 @ F,0,0,1,0,0,0,1 | F,0,0,1,0,0,0,1 @ F,0,0,1,0,0,0,1 @ F,0,0,1,0,0,0,1 @ F,0,0,1,0,0,0,1"
       is_visible="true"
       lpeversion="1"
       radius="0"
       unit="px"
       method="auto"
       mode="F"
       chamfer_steps="1"
       flexible="false"
       use_knot_distance="true"
       apply_no_radius="true"
       apply_with_radius="true"
       only_selected="false"
       hide_knots="false" />
  </defs>
  <sodipodi:namedview
     id="namedview1"
     pagecolor="#ffffff"
     bordercolor="#000000"
     borderopacity="0.25"
     inkscape:showpageshadow="2"
     inkscape:pageopacity="0.0"
     inkscape:pagecheckerboard="0"
     inkscape:deskcolor="#d1d1d1"
     inkscape:zoom="17"
     inkscape:cx="3.2941176"
     inkscape:cy="16.235294"
     inkscape:window-width="1920"
     inkscape:window-height="1014"
     inkscape:window-x="0"
     inkscape:window-y="0"
     inkscape:window-maximized="1"
     inkscape:current-layer="svg1" />
  <path
     d="m 7.0583034,12.796644 c 0.3409877,2.124136 2.0227186,3.805931 4.1468226,4.147016 0.435905,0.07 1.157736,0.06999 1.593518,3.7e-5 2.124136,-0.340988 3.805931,-2.022719 4.147016,-4.146823 0.07,-0.435905 0.06999,-1.157736 3.7e-5,-1.593518 C 16.604709,9.07922 14.922978,7.3974248 12.798874,7.0563403 12.362969,6.9863436 11.641138,6.9863474 11.205356,7.0563034 9.08122,7.3972911 7.3994248,9.079022 7.0583403,11.203126 c -0.069997,0.435905 -0.069993,1.157736 -3.69e-5,1.593518 z M 11.8,19 h 0.4 a 0.8,0.8 45 0 1 0.8,0.8 l 0,1.4 A 0.8,0.8 135 0 1 12.2,22 H 11.8 A 0.8,0.8 45 0 1 11,21.2 V 19.8 A 0.8,0.8 135 0 1 11.8,19 Z m 0,-17 h 0.4 A 0.8,0.8 45 0 1 13,2.8 l 0,1.4 A 0.8,0.8 135 0 1 12.2,5 H 11.8 A 0.8,0.8 45 0 1 11,4.2 V 2.8 A 0.8,0.8 135 0 1 11.8,2 Z m -9,9 H 4.2 A 0.8,0.8 45 0 1 5,11.8 v 0.4 A 0.8,0.8 135 0 1 4.2,13 L 2.8,13 A 0.8,0.8 45 0 1 2,12.2 V 11.8 A 0.8,0.8 135 0 1 2.8,11 Z m 17,0 h 1.4 a 0.8,0.8 45 0 1 0.8,0.8 v 0.4 A 0.8,0.8 135 0 1 21.2,13 l -1.4,0 A 0.8,0.8 45 0 1 19,12.2 V 11.8 A 0.8,0.8 135 0 1 19.8,11 Z M 5.0713146,19.212315 4.7886854,18.929685 a 0.8,0.8 90 0 1 0,-1.13137 l 0.9896292,-0.98963 a 0.8,0.8 0 0 1 1.1313708,0 l 0.2826292,0.28263 a 0.8,0.8 90 0 1 0,1.13137 l -0.9896292,0.98963 a 0.8,0.8 0 0 1 -1.1313708,0 z M 16.807685,5.7783146 17.798315,4.7876854 a 0.8,0.8 0 0 1 1.13137,0 l 0.28263,0.2826292 a 0.8,0.8 90 0 1 0,1.1313708 l -0.99063,0.9906292 a 0.8,0.8 0 0 1 -1.13137,0 l -0.28263,-0.2826292 a 0.8,0.8 90 0 1 0,-1.1313708 z M 5.7784479,7.1931813 4.7885521,6.2028187 A 0.79990577,0.79990577 90.016878 0 1 4.7888853,5.0715146 L 5.0721147,4.7884854 a 0.79990561,0.79990561 0.02363329 0 1 1.131304,4.667e-4 L 7.1925813,5.7790479 A 0.80037727,0.80037727 90.013507 0 1 7.1923146,6.9106854 L 6.9096854,7.1933146 A 0.79981148,0.79981148 0.0067518 0 1 5.7784479,7.1931813 Z m 13.4338671,11.7365037 -0.28263,0.28263 a 0.8,0.8 0 0 1 -1.13137,0 l -0.99063,-0.99063 a 0.8,0.8 90 0 1 0,-1.13137 l 0.28263,-0.28263 a 0.8,0.8 0 0 1 1.13137,0 l 0.99063,0.99063 a 0.8,0.8 90 0 1 0,1.13137 z"
     id="path1"
     inkscape:path-effect="#path-effect2"
     inkscape:original-d="M6.995 12c0 2.761 2.246 5.007 5.007 5.007s5.007-2.246 5.007-5.007-2.246-5.007-5.007-5.007S6.995 9.239 6.995 12zM11 19h2v3h-2zm0-17h2v3h-2zm-9 9h3v2H2zm17 0h3v2h-3zM5.637 19.778l-1.414-1.414 2.121-2.121 1.414 1.414zM16.242 6.344l2.122-2.122 1.414 1.414-2.122 2.122zM6.344 7.759 4.223 5.637l1.415-1.414 2.12 2.122zm13.434 10.605-1.414 1.414-2.122-2.122 1.414-1.414z" />
</svg>
